{"title":"Atkhairy Model Jasmine Is Back For A Sexy Interview [MED]","uid":12212778,"size":413933200,"categoryP":"porn","categoryS":"other","magnet":"?xt=urn:btih:833eebaf714040e50e5cbad71855bd2ff22c05f6&amp;dn=Atkhairy+Model+Jasmine+Is+Back+For+A+Sexy+Interview+%5BMED%5D&amp;tr=udp%3A%2F%2Ftracker.openbittorrent.com%3A80&amp;tr=udp%3A%2F%2Fopen.demonii.com%3A1337&amp;tr=udp%3A%2F%2Ftracker.coppersurfer.tk%3A6969&amp;tr=udp%3A%2F%2Fexodus.desync.com%3A6969","seeders":0,"leechers":0,"uploader":"pBtu6RHs","files":3,"time":1439153524,"description":" &lt;a href=&quot;http://i.imgur.com/AfUny33l.jpg&quot; rel=&quot;nofollow&quot; target=&quot;_NEW&quot;&gt;http://i.imgur.com/AfUny33l.jpg&lt;/a&gt;\n\nGeneral\nComplete name : Atkhairy.Model.Jasmine.Is.Back.For.A.Sexy.Interview.mp4\nFormat : MPEG-4\nFormat profile : Base Media\nCodec ID : isom\nFile size : 395 MiB\nDuration : 25mn 3s\nOverall bit rate mode : Variable\nOverall bit rate : 2 201 Kbps\nEncoded date : UTC 1970-01-01 00:00:00\nTagged date : UTC 1970-01-01 00:00:00\nWriting application : Lavf53.5.0\n\nVideo\nID : 1\nFormat : AVC\nFormat/Info : Advanced Video Codec\nFormat profile : &lt;a class=&quot;__cf_email__&quot; href=&quot;/cdn-cgi/l/email-protection&quot; data-cfemail=&quot;85cdece2edc5c9b6abb4&quot;&gt;[email&amp;#160;protected]&lt;/a&gt;&lt;script data-cfhash='f9e31' type=&quot;text/javascript&quot;&gt;\n/* &lt;![CDATA[ */!function(){try{var t=&quot;currentScript&quot;in document?document.currentScript:function(){for(var t=document.getElementsByTagName(&quot;script&quot;),e=t.length;e--;)if(t[e].getAttribute(&quot;data-cfhash&quot;))return t[e]}();if(t&amp;&amp;t.previousSibling){var e,r,n,i,c=t.previousSibling,a=c.getAttribute(&quot;data-cfemail&quot;);if(a){for(e=&quot;&quot;,r=parseInt(a.substr(0,2),16),n=2;a.length-n;n+=2)i=parseInt(a.substr(n,2),16)^r,e+=String.fromCharCode(i);e=document.createTextNode(e),c.parentNode.replaceChild(e,c)}t.parentNode.removeChild(t);}}catch(u){}}()/* ]]&gt; */&lt;/script&gt;\nFormat settings, CABAC : Yes\nFormat settings, ReFrames : 4 frames\nCodec ID : avc1\nCodec ID/Info : Advanced Video Coding\nDuration : 25mn 3s\nBit rate : 2 048 Kbps\nWidth : 1 280 pixels\nHeight : 720 pixels\nDisplay aspect ratio : 16:9\nFrame rate mode : Variable\nFrame rate : 29.970 fps\nMinimum frame rate : 29.382 fps\nMaximum frame rate : 30.582 fps\nColor space : YUV\nChroma subsampling : 4:2:0\nBit depth : 8 bits\nScan type : Progressive\nBits/(Pixel*Frame) : 0.074\nStream size : 367 MiB (93%)\nWriting library : x264 core 119\nEncoded date : UTC 1970-01-01 00:00:00\nTagged date : UTC 2013-03-05 08:43:59\n\nAudio\nID : 2\nFormat : AAC\nFormat/Info : Advanced Audio Codec\nFormat profile : LC\nCodec ID : 40\nDuration : 25mn 3s\nBit rate mode : Variable\nBit rate : 50.4 Kbps\nMaximum bit rate : 51.1 Kbps\nChannel(s) : 2 channels\nChannel positions : Front: L R\nSampling rate : 48.0 KHz\nCompression mode : Lossy\nStream size : 9.03 MiB (2%)\nEncoded date : UTC 1970-01-01 00:00:00\nTagged date : UTC 2013-03-05 08:43:59\n\nOther #1\nID : 65536\nType : Hint\nFormat : RTP\nCodec ID : rtp \nDuration : 25mn 3s\nEncoded date : UTC 2013-03-05 08:43:50\nTagged date : UTC 2013-03-05 08:43:59\n\nOther #2\nID : 65537\nType : Hint\nFormat : RTP\nCodec ID : rtp \nDuration : 25mn 3s\nEncoded date : UTC 2013-03-05 08:43:58\nTagged date : UTC 2013-03-05 08:43:59\nBit rate mode : VBR","torrent":{"xt":"urn:btih:833eebaf714040e50e5cbad71855bd2ff22c05f6","amp;dn":"Atkhairy+Model+Jasmine+Is+Back+For+A+Sexy+Interview+%5BMED%5D","amp;tr":["udp%3A%2F%2Ftracker.openbittorrent.com%3A80","udp%3A%2F%2Fopen.demonii.com%3A1337","udp%3A%2F%2Ftracker.coppersurfer.tk%3A6969","udp%3A%2F%2Fexodus.desync.com%3A6969"],"infoHash":"833eebaf714040e50e5cbad71855bd2ff22c05f6","infoHashBuffer":{"type":"Buffer","data":[131,62,235,175,113,64,64,229,14,92,186,215,24,85,189,47,242,44,5,246]},"announce":[],"urlList":[]}}